<svg width="24" height="24" viewBox="0 0 24 24" fill="none" xmlns="http://www.w3.org/2000/svg">
<path d="M12.0002 22.8C17.9649 22.8 22.8002 17.9647 22.8002 12C22.8002 6.03534 17.9649 1.20001 12.0002 1.20001C6.03552 1.20001 1.2002 6.03534 1.2002 12C1.2002 17.9647 6.03552 22.8 12.0002 22.8Z" stroke="black" stroke-width="2.18182" stroke-miterlimit="10"/>
<path d="M12 22.6965C14.5929 22.6965 16.6948 17.9058 16.6948 11.9962C16.6948 6.08652 14.5929 1.29581 12 1.29581C9.40712 1.29581 7.30518 6.08652 7.30518 11.9962C7.30518 17.9058 9.40712 22.6965 12 22.6965Z" stroke="black" stroke-width="2.18182" stroke-miterlimit="10"/>
<path d="M1.69824 8.888H22.3018" stroke="black" stroke-width="2.18182" stroke-miterlimit="10"/>
<path d="M1.69824 15.2921H22.3018" stroke="black" stroke-width="2.18182" stroke-miterlimit="10"/>
</svg>
